<svg width="375" height="94" viewBox="0 0 375 94" fill="none" xmlns="http://www.w3.org/2000/svg">
<rect width="375" height="94" fill="#6642D1"/>
<path d="M55.1914 25.5664V25.7168C55.1823 26.3092 55.1572 26.863 55.1162 27.3779C55.0798 27.8929 54.9954 28.4785 54.8633 29.1348L54.002 29.0664C54.1432 28.3783 54.2344 27.7721 54.2754 27.248C54.321 26.724 54.3438 26.2044 54.3438 25.6895H49.2441V24.9512H55.1914V25.5664ZM52.0469 30.2764C53.61 30.2126 54.9818 30.1009 56.1621 29.9414L56.2168 30.5977C55.0911 30.7845 53.8949 30.9098 52.6279 30.9736C51.361 31.0329 50.0143 31.0625 48.5879 31.0625L48.4922 30.3379C49.4902 30.3379 50.3926 30.3265 51.1992 30.3037V27.5898H52.0469V30.2764ZM57.8984 28.0137H59.7578V28.752H57.8984V33.0996H57.0371V24.0078H57.8984V28.0137ZM58.2949 35.7793H50.3789V32.2656H51.2402V35.0547H58.2949V35.7793ZM70.0254 27.1797H71.8984V27.9316H70.0254V31.2129H69.1641V24.0078H70.0254V27.1797ZM70.0254 35.8887H62.4648V31.8281H70.0254V35.8887ZM63.2988 35.1777H69.1777V32.5117H63.2988V35.1777ZM62.6699 29.7637C63.6816 29.7637 64.584 29.7386 65.377 29.6885C66.1745 29.6338 66.9993 29.5358 67.8516 29.3945L67.9336 30.1055C66.972 30.2604 66.0514 30.3675 65.1719 30.4268C64.2923 30.486 63.276 30.5156 62.123 30.5156H61.1934V27.1797H65.7598V25.4023H61.166V24.6777H66.6074V27.8633H62.0547V29.7637H62.123H62.6699ZM83.0684 26.1543H73.3203V25.4297H77.791V23.9121H78.6523V25.4297H83.0684V26.1543ZM83.7793 32.5527H78.6523V36.0801H77.791V32.5527H72.7324V31.8145H83.7793V32.5527ZM78.2148 26.9199C79.0215 26.9199 79.7142 26.9974 80.293 27.1523C80.8717 27.3073 81.3138 27.5352 81.6191 27.8359C81.929 28.1322 82.084 28.4922 82.084 28.916C82.084 29.3307 81.929 29.6885 81.6191 29.9893C81.3138 30.2855 80.8695 30.5111 80.2861 30.666C79.7074 30.821 79.0169 30.8984 78.2148 30.8984C77.4128 30.8984 76.7201 30.821 76.1367 30.666C75.5579 30.5111 75.1159 30.2855 74.8105 29.9893C74.5052 29.6885 74.3548 29.3307 74.3594 28.916C74.3548 28.4922 74.5052 28.1322 74.8105 27.8359C75.1159 27.5352 75.5579 27.3073 76.1367 27.1523C76.7155 26.9974 77.4082 26.9199 78.2148 26.9199ZM78.2148 27.5898C77.6042 27.5898 77.0732 27.6445 76.6221 27.7539C76.1755 27.8587 75.8337 28.0114 75.5967 28.2119C75.3597 28.4079 75.2435 28.6426 75.248 28.916C75.2435 29.1849 75.3597 29.4173 75.5967 29.6133C75.8382 29.8092 76.1823 29.9596 76.6289 30.0645C77.0755 30.1693 77.6042 30.2194 78.2148 30.2148C78.8255 30.2194 79.3542 30.1693 79.8008 30.0645C80.2474 29.9596 80.5892 29.8092 80.8262 29.6133C81.0677 29.4173 81.1908 29.1849 81.1953 28.916C81.1908 28.6426 81.0677 28.4079 80.8262 28.2119C80.5892 28.0114 80.2474 27.8587 79.8008 27.7539C79.3542 27.6445 78.8255 27.5898 78.2148 27.5898ZM94.7441 36.0664H93.8965V24.0078H94.7441V36.0664ZM91.1895 25.334C91.1803 27.1068 90.7087 28.7178 89.7744 30.167C88.8402 31.6162 87.416 32.8034 85.502 33.7285L85.0234 33.0176C86.6595 32.2428 87.9242 31.2607 88.8174 30.0713C89.7106 28.8773 90.2119 27.5352 90.3213 26.0449H85.5566V25.334H91.1895ZM97.4922 36.4902H96.6309L99.8164 24.6367H100.678L97.4922 36.4902ZM111.355 36.0664H110.508V24.0078H111.355V36.0664ZM107.801 25.334C107.792 27.1068 107.32 28.7178 106.386 30.167C105.451 31.6162 104.027 32.8034 102.113 33.7285L101.635 33.0176C103.271 32.2428 104.535 31.2607 105.429 30.0713C106.322 28.8773 106.823 27.5352 106.933 26.0449H102.168V25.334H107.801ZM123.811 36.0664H122.977V29.6406H121.021V35.4238H120.215V24.2949H121.021V28.916H122.977V24.0078H123.811V36.0664ZM118.547 26.2227H114.883V32.252C115.849 32.252 116.656 32.2269 117.303 32.1768C117.954 32.1221 118.611 32.0241 119.271 31.8828L119.367 32.6211C118.684 32.7669 118.011 32.8649 117.351 32.915C116.69 32.9652 115.831 32.9948 114.773 33.0039H114.021V25.498H118.547V26.2227ZM132.424 25.6758H131.111V29.75C131.74 29.709 132.333 29.6543 132.889 29.5859L132.93 30.2559C131.877 30.4199 130.76 30.527 129.58 30.5771C128.404 30.6273 127.142 30.6523 125.793 30.6523L125.684 29.9004L127.324 29.8936V25.6758H126.025V24.9512H132.424V25.6758ZM135.582 31.4727H134.721V29.0801H132.492V28.3691H134.721V26.9609H132.492V26.2363H134.721V24.0078H135.582V31.4727ZM131.617 31.7461C132.451 31.7461 133.167 31.8304 133.764 31.999C134.365 32.1631 134.826 32.4046 135.145 32.7236C135.464 33.0426 135.623 33.4277 135.623 33.8789C135.623 34.3301 135.464 34.7152 135.145 35.0342C134.826 35.3577 134.365 35.6038 133.764 35.7725C133.167 35.9411 132.451 36.0254 131.617 36.0254C130.783 36.0254 130.065 35.9411 129.464 35.7725C128.867 35.6038 128.409 35.3577 128.09 35.0342C127.775 34.7152 127.62 34.3301 127.625 33.8789C127.62 33.4277 127.775 33.0426 128.09 32.7236C128.409 32.4046 128.867 32.1631 129.464 31.999C130.065 31.8304 130.783 31.7461 131.617 31.7461ZM131.617 32.4297C130.975 32.4297 130.416 32.4889 129.942 32.6074C129.468 32.7259 129.104 32.8945 128.849 33.1133C128.593 33.332 128.468 33.5872 128.473 33.8789C128.468 34.1751 128.591 34.4326 128.842 34.6514C129.097 34.8701 129.462 35.0365 129.936 35.1504C130.414 35.2689 130.975 35.3281 131.617 35.3281C132.26 35.3281 132.818 35.2689 133.292 35.1504C133.771 35.0365 134.137 34.8701 134.393 34.6514C134.648 34.4326 134.775 34.1751 134.775 33.8789C134.775 33.5872 134.648 33.332 134.393 33.1133C134.137 32.8945 133.771 32.7259 133.292 32.6074C132.818 32.4889 132.26 32.4297 131.617 32.4297ZM128.172 29.8799C128.792 29.8662 129.493 29.8411 130.277 29.8047V25.6758H128.172V29.8799ZM145.084 26.3047C145.084 26.847 145.214 27.3665 145.474 27.8633C145.738 28.36 146.098 28.7975 146.554 29.1758C147.014 29.5495 147.531 29.8366 148.105 30.0371L147.668 30.7207C146.975 30.4655 146.367 30.0941 145.843 29.6064C145.319 29.1143 144.929 28.5469 144.674 27.9043C144.423 28.6061 144.024 29.2236 143.478 29.7568C142.935 30.29 142.304 30.6934 141.584 30.9668L141.119 30.2969C141.707 30.0827 142.238 29.7751 142.712 29.374C143.186 28.973 143.56 28.5104 143.833 27.9863C144.106 27.4577 144.245 26.9017 144.25 26.3184V25.6211H141.406V24.8965H147.887V25.6211H145.084V26.3047ZM150.512 27.2754H152.371V28.0273H150.512V31.2676H149.65V24.0078H150.512V27.2754ZM150.512 36.0664H149.65V32.6758H142.678V31.9512H150.512V36.0664ZM157.225 25.9902C157.225 26.5599 157.359 27.1022 157.628 27.6172C157.897 28.1322 158.264 28.5856 158.729 28.9775C159.198 29.3649 159.722 29.6589 160.301 29.8594L159.809 30.5293C159.125 30.2695 158.521 29.8913 157.997 29.3945C157.473 28.8932 157.083 28.3145 156.828 27.6582C156.582 28.401 156.186 29.055 155.639 29.6201C155.092 30.1807 154.449 30.6068 153.711 30.8984L153.246 30.1875C153.843 29.9733 154.379 29.6611 154.853 29.251C155.326 28.8363 155.7 28.3509 155.974 27.7949C156.247 27.2389 156.386 26.6465 156.391 26.0176V24.7051H157.225V25.9902ZM163.158 31.1719H162.297V27.4258H159.48V26.7012H162.297V24.0078H163.158V31.1719ZM159.193 31.5273C160.023 31.5319 160.736 31.623 161.333 31.8008C161.935 31.9785 162.395 32.2383 162.714 32.5801C163.037 32.9173 163.199 33.3229 163.199 33.7969C163.199 34.2663 163.037 34.6673 162.714 35C162.395 35.3372 161.935 35.5924 161.333 35.7656C160.736 35.9388 160.023 36.0254 159.193 36.0254C158.364 36.0254 157.648 35.9388 157.047 35.7656C156.45 35.5924 155.992 35.3372 155.673 35C155.354 34.6673 155.197 34.2663 155.201 33.7969C155.197 33.3229 155.354 32.9173 155.673 32.5801C155.992 32.2428 156.45 31.9854 157.047 31.8076C157.648 31.6253 158.364 31.5319 159.193 31.5273ZM159.193 32.2383C158.555 32.2383 157.997 32.3021 157.519 32.4297C157.045 32.5527 156.68 32.7327 156.425 32.9697C156.17 33.2021 156.044 33.4779 156.049 33.7969C156.044 34.1068 156.17 34.3779 156.425 34.6104C156.68 34.8428 157.045 35.0205 157.519 35.1436C157.997 35.2666 158.555 35.3281 159.193 35.3281C159.831 35.3281 160.387 35.2666 160.861 35.1436C161.34 35.0205 161.707 34.8428 161.962 34.6104C162.222 34.3779 162.352 34.1068 162.352 33.7969C162.352 33.4779 162.222 33.2021 161.962 32.9697C161.707 32.7327 161.34 32.5527 160.861 32.4297C160.387 32.3021 159.831 32.2383 159.193 32.2383ZM174.602 29.0527H176.68V29.791H174.602V36.0664H173.74V24.0078H174.602V29.0527ZM172.455 26.7148H165.25V25.9902H168.463V24.1309H169.324V25.9902H172.455V26.7148ZM168.914 27.8223C169.475 27.8223 169.976 27.9385 170.418 28.1709C170.86 28.4033 171.204 28.7269 171.45 29.1416C171.701 29.5563 171.826 30.028 171.826 30.5566C171.826 31.0853 171.701 31.557 171.45 31.9717C171.204 32.3864 170.86 32.71 170.418 32.9424C169.976 33.1748 169.475 33.291 168.914 33.291C168.354 33.291 167.85 33.1748 167.403 32.9424C166.961 32.71 166.615 32.3864 166.364 31.9717C166.118 31.557 165.997 31.0853 166.002 30.5566C165.997 30.028 166.118 29.5563 166.364 29.1416C166.615 28.7269 166.961 28.4033 167.403 28.1709C167.85 27.9385 168.354 27.8223 168.914 27.8223ZM168.914 28.5469C168.518 28.5514 168.16 28.6426 167.841 28.8203C167.522 28.9935 167.271 29.2327 167.089 29.5381C166.911 29.8389 166.822 30.1784 166.822 30.5566C166.822 30.9349 166.911 31.2767 167.089 31.582C167.271 31.8828 167.522 32.1198 167.841 32.293C168.16 32.4616 168.518 32.5436 168.914 32.5391C169.311 32.5436 169.668 32.4616 169.987 32.293C170.306 32.1198 170.555 31.8828 170.732 31.582C170.915 31.2767 171.006 30.9349 171.006 30.5566C171.006 30.1784 170.915 29.8389 170.732 29.5381C170.555 29.2327 170.306 28.9935 169.987 28.8203C169.668 28.6426 169.311 28.5514 168.914 28.5469ZM187.002 26.4961V26.6465C186.993 27.64 186.963 28.5264 186.913 29.3057C186.863 30.0804 186.747 30.9759 186.564 31.9922L185.689 31.8828C185.876 30.9167 185.995 30.0508 186.045 29.2852C186.1 28.515 186.132 27.6354 186.141 26.6465V26.4961V26.0039H178.607V25.2793H187.002V26.4961ZM188.41 34.2754H177.418V33.5371H181.848V29.1758H182.695V33.5371H188.41V34.2754Z" fill="#CDB1F5"/>
<path d="M56.5352 57.0977C57.8307 57.0977 58.9538 57.2311 59.9043 57.498C60.8548 57.7585 61.5872 58.1426 62.1016 58.6504C62.6159 59.1517 62.8763 59.7539 62.8828 60.457C62.8763 61.1471 62.6159 61.7428 62.1016 62.2441C61.5872 62.7454 60.8516 63.1296 59.8945 63.3965C58.944 63.6634 57.8242 63.7969 56.5352 63.7969C55.2591 63.7969 54.1426 63.6634 53.1855 63.3965C52.235 63.1296 51.4993 62.7454 50.9785 62.2441C50.4642 61.7428 50.207 61.1471 50.207 60.457C50.207 59.7539 50.4642 59.1517 50.9785 58.6504C51.4993 58.1426 52.235 57.7585 53.1855 57.498C54.1361 57.2311 55.2526 57.0977 56.5352 57.0977ZM56.5352 58.9531C55.2982 58.9531 54.3477 59.0801 53.6836 59.334C53.0195 59.5879 52.6875 59.9622 52.6875 60.457C52.6875 60.9323 53.0195 61.2936 53.6836 61.541C54.3477 61.7819 55.2982 61.9023 56.5352 61.9023C57.7721 61.9023 58.7259 61.7819 59.3965 61.541C60.0671 61.2936 60.4023 60.9323 60.4023 60.457C60.4023 59.9622 60.0671 59.5879 59.3965 59.334C58.7259 59.0801 57.7721 58.9531 56.5352 58.9531ZM62.7852 48.2695C62.7852 49.2266 62.7559 50.0566 62.6973 50.7598C62.6452 51.4629 62.5052 52.2214 62.2773 53.0352L59.8359 52.8008C60.0117 52.0716 60.1289 51.4043 60.1875 50.7988C60.2461 50.1934 60.2819 49.5195 60.2949 48.7773H50.3828V46.8242H62.7852V48.2695ZM64.6992 55.9648H48.5664V53.9531H54.6211V50.8477H57.082V53.9531H64.6992V55.9648ZM80.793 59.0312H78.3125V54.8125H74.25C73.8138 55.2747 73.293 55.6361 72.6875 55.8965C72.0885 56.1504 71.4505 56.2773 70.7734 56.2773C69.888 56.2773 69.084 56.0788 68.3613 55.6816C67.6387 55.2845 67.069 54.7376 66.6523 54.041C66.2422 53.3379 66.0404 52.5534 66.0469 51.6875C66.0404 50.8086 66.2422 50.0208 66.6523 49.3242C67.0625 48.6211 67.6289 48.071 68.3516 47.6738C69.0742 47.2702 69.8815 47.0651 70.7734 47.0586C71.457 47.0651 72.0951 47.1953 72.6875 47.4492C73.2865 47.7031 73.804 48.0612 74.2402 48.5234H78.3125V46.043H80.793V59.0312ZM81.2227 63.4844H68.9961V57.7227H71.4961V61.4922H81.2227V63.4844ZM70.7734 49.2852C70.3112 49.2852 69.8978 49.3828 69.5332 49.5781C69.1751 49.7669 68.8952 50.0436 68.6934 50.4082C68.498 50.7728 68.4036 51.1992 68.4102 51.6875C68.4036 52.1693 68.498 52.5924 68.6934 52.957C68.8952 53.3151 69.1751 53.5918 69.5332 53.7871C69.8978 53.9759 70.3112 54.0703 70.7734 54.0703C71.2096 54.0703 71.6035 53.9759 71.9551 53.7871C72.3132 53.5918 72.5931 53.3151 72.7949 52.957C72.9967 52.5924 73.0977 52.1693 73.0977 51.6875C73.0977 51.1992 72.9967 50.7728 72.7949 50.4082C72.5931 50.0436 72.3132 49.7669 71.9551 49.5781C71.6035 49.3828 71.2096 49.2852 70.7734 49.2852ZM75.3242 50.5156C75.4154 50.8997 75.4609 51.2904 75.4609 51.6875C75.4609 52.0651 75.4154 52.4427 75.3242 52.8203H78.3125V50.5156H75.3242ZM103.977 61.7656H87.707V59.7344H94.582V56.2578H97.0625V59.7344H103.977V61.7656ZM102.551 50.457H97.1211C97.1927 51.1406 97.4727 51.7949 97.9609 52.4199C98.4492 53.0384 99.1523 53.5723 100.07 54.0215C100.988 54.4707 102.095 54.7734 103.391 54.9297L102.492 56.8633C100.93 56.668 99.5788 56.2611 98.4395 55.6426C97.3001 55.0241 96.4277 54.2461 95.8223 53.3086C95.2168 54.2461 94.3477 55.0241 93.2148 55.6426C92.082 56.2611 90.7344 56.668 89.1719 56.8633L88.2539 54.9297C89.5495 54.7734 90.6562 54.4707 91.5742 54.0215C92.4922 53.5723 93.1953 53.0384 93.6836 52.4199C94.1784 51.7949 94.4648 51.1406 94.543 50.457H89.1133V48.4648H94.582V46.2383H97.0625V48.4648H102.551V50.457ZM120.363 63.7969H118V54.8711H116.281V62.9375H113.996V46.3164H116.281V52.8789H118V46.0234H120.363V63.7969ZM112.121 50.0859H108V57.6738C108.938 57.6608 109.797 57.625 110.578 57.5664C111.359 57.5078 112.154 57.4036 112.961 57.2539L113.137 59.2852C112.141 59.474 111.164 59.6009 110.207 59.666C109.25 59.7246 108.091 59.7604 106.73 59.7734H105.5V48.0742H112.121V50.0859ZM137.473 59.4219H134.953V57.4492H131.477V55.4961H134.953V46.043H137.473V59.4219ZM137.883 63.4844H124.621V58.0547H126.906V54.6367C125.689 54.6888 124.211 54.7214 122.473 54.7344L122.16 52.7617C125.09 52.7487 127.528 52.6836 129.475 52.5664C129.663 51.2578 129.777 50.0273 129.816 48.875H123.781V46.9023H132.316V47.5664C132.316 48.2956 132.294 49.0345 132.248 49.7832C132.209 50.5254 132.115 51.388 131.965 52.3711C132.733 52.293 133.306 52.2279 133.684 52.1758L133.84 53.9336C132.486 54.1745 130.995 54.36 129.367 54.4902V58.3086H127.121V61.4922H137.883V63.4844ZM158.273 50.0664H160.676V52.1172H158.273V56.3945H155.773V46.0234H158.273V50.0664ZM147.18 49.3242H150.812V47.0586H153.312V55.5156H144.699V47.0586H147.18V49.3242ZM150.812 53.5625V51.2578H147.18V53.5625H150.812ZM158.371 59.168H149.133V61.6094H158.703V63.5625H146.652V57.1953H158.371V59.168ZM166.242 47.2734C167.141 47.2734 167.945 47.5339 168.654 48.0547C169.364 48.569 169.917 49.3047 170.314 50.2617C170.718 51.2188 170.923 52.332 170.93 53.6016C170.923 54.8776 170.718 55.9974 170.314 56.9609C169.917 57.918 169.364 58.6569 168.654 59.1777C167.951 59.6921 167.147 59.9492 166.242 59.9492C165.337 59.9492 164.527 59.6921 163.811 59.1777C163.101 58.6569 162.544 57.918 162.141 56.9609C161.743 55.9974 161.548 54.8776 161.555 53.6016C161.548 52.3385 161.743 51.2285 162.141 50.2715C162.544 49.3145 163.101 48.5755 163.811 48.0547C164.527 47.5339 165.337 47.2734 166.242 47.2734ZM166.242 49.5195C165.786 49.5195 165.386 49.679 165.041 49.998C164.696 50.3105 164.429 50.7728 164.24 51.3848C164.051 51.9967 163.957 52.7357 163.957 53.6016C163.957 54.4674 164.051 55.2096 164.24 55.8281C164.429 56.4401 164.696 56.9023 165.041 57.2148C165.386 57.5273 165.786 57.6836 166.242 57.6836C166.704 57.6836 167.108 57.5273 167.453 57.2148C167.798 56.9023 168.065 56.4401 168.254 55.8281C168.443 55.2161 168.54 54.474 168.547 53.6016C168.54 52.7357 168.443 51.9967 168.254 51.3848C168.065 50.7728 167.798 50.3105 167.453 49.998C167.108 49.679 166.704 49.5195 166.242 49.5195ZM175.48 52.7227H178.098V54.793H175.48V63.7969H172.98V46.0234H175.48V52.7227ZM192.766 52.8398H195.285V54.8906H192.766V63.7578H190.266V46.0234H192.766V52.8398ZM188.02 47.8398C188.007 50.6719 187.368 53.1751 186.105 55.3496C184.849 57.5176 182.798 59.2982 179.953 60.6914L178.547 58.7773C180.663 57.7161 182.287 56.4596 183.42 55.0078C184.559 53.556 185.246 51.8438 185.48 49.8711H179.562V47.8398H188.02ZM201.73 50.4961C201.73 52.0846 201.984 53.5332 202.492 54.8418C203 56.1504 203.82 57.1693 204.953 57.8984L203.605 59.832C202.173 58.9661 201.148 57.5436 200.529 55.5645C200.197 56.6061 199.758 57.5273 199.211 58.3281C198.664 59.1224 198 59.7539 197.219 60.2227L195.695 58.3867C196.939 57.612 197.85 56.5345 198.43 55.1543C199.016 53.7676 199.309 52.2539 199.309 50.6133V47.5469H201.73V50.4961ZM211.438 63.7969H209.055V46.0234H211.438V63.7969ZM207.707 62.9766H205.383V54.0508H203.078V52.0195H205.383V46.2773H207.707V62.9766ZM229.582 61.7266H213.312V59.6758H216.945V55.3301C216.242 54.9069 215.699 54.3861 215.314 53.7676C214.93 53.1426 214.738 52.4427 214.738 51.668C214.738 50.724 215.025 49.8906 215.598 49.168C216.171 48.4453 216.962 47.8854 217.971 47.4883C218.986 47.0846 220.135 46.8828 221.418 46.8828C222.694 46.8828 223.837 47.0846 224.846 47.4883C225.861 47.8854 226.659 48.4453 227.238 49.168C227.818 49.8906 228.111 50.724 228.117 51.668C228.111 52.4232 227.919 53.11 227.541 53.7285C227.17 54.3405 226.646 54.8581 225.969 55.2812V59.6758H229.582V61.7266ZM221.418 48.8555C220.572 48.8555 219.829 48.9661 219.191 49.1875C218.56 49.4089 218.068 49.7311 217.717 50.1543C217.372 50.571 217.199 51.0755 217.199 51.668C217.199 52.2409 217.372 52.7389 217.717 53.1621C218.068 53.5853 218.563 53.9108 219.201 54.1387C219.839 54.3665 220.578 54.4805 221.418 54.4805C222.251 54.4805 222.987 54.3665 223.625 54.1387C224.263 53.9108 224.758 53.5853 225.109 53.1621C225.467 52.7389 225.65 52.2409 225.656 51.668C225.65 51.082 225.471 50.5775 225.119 50.1543C224.768 49.7311 224.273 49.4089 223.635 49.1875C222.997 48.9661 222.258 48.8555 221.418 48.8555ZM223.449 59.6758V56.2285C222.779 56.3522 222.102 56.4141 221.418 56.4141C220.689 56.4141 220.018 56.3522 219.406 56.2285V59.6758H223.449ZM234.387 57.7617H231.887L231.633 47.8594H234.641L234.387 57.7617ZM233.156 62.1758C232.857 62.1758 232.58 62.1009 232.326 61.9512C232.072 61.8014 231.87 61.6029 231.721 61.3555C231.577 61.1016 231.509 60.8281 231.516 60.5352C231.509 60.2422 231.577 59.972 231.721 59.7246C231.87 59.4772 232.072 59.2819 232.326 59.1387C232.58 58.9889 232.857 58.9141 233.156 58.9141C233.436 58.9141 233.7 58.9889 233.947 59.1387C234.201 59.2819 234.403 59.4772 234.553 59.7246C234.702 59.972 234.777 60.2422 234.777 60.5352C234.777 60.8281 234.702 61.1016 234.553 61.3555C234.403 61.6029 234.201 61.8014 233.947 61.9512C233.7 62.1009 233.436 62.1758 233.156 62.1758Z" fill="white"/>
</svg>
