<svg width="375" height="54" viewBox="0 0 375 54" fill="none" xmlns="http://www.w3.org/2000/svg">
<rect width="375" height="54" fill="white"/>
<path d="M64.5 28.5811C64.5 29.1334 64.0523 29.5811 63.5 29.5811H59.833C59.2807 29.5811 58.833 29.1334 58.833 28.5811V24.4141C58.8328 22.8495 57.5647 21.5811 56 21.5811C54.4353 21.5811 53.1672 22.8495 53.167 24.4141V28.5811C53.167 29.1334 52.7193 29.5811 52.167 29.5811H48.5C47.9477 29.5811 47.5 29.1334 47.5 28.5811V19.018C47.5 18.7395 47.6162 18.4736 47.8206 18.2843L54.8593 11.7663C55.2263 11.4264 55.788 11.41 56.1742 11.7279L64.1355 18.2811C64.3663 18.4711 64.5 18.7543 64.5 19.0532V28.5811Z" fill="#0E0E0E"/>
<path d="M58.5786 41.6975V44.3011H52.3838V41.6975H58.5786ZM51.4446 41.2417V40.2714H54.8666V39.8294C53.3438 39.7465 52.4978 39.3218 52.5047 38.5794C52.4978 37.7403 53.5786 37.3156 55.4916 37.3122C57.4218 37.3156 58.4819 37.7403 58.4819 38.5794C58.4819 39.3218 57.6497 39.7465 56.1166 39.8294V40.2714H59.5523V41.2417H51.4446ZM51.8313 37.0843V36.1485H54.8666V35.4302H56.1166V36.1485H59.1276V37.0843H51.8313ZM53.6097 43.3722H57.3631V42.6229H53.6097V43.3722ZM53.8376 38.5794C53.8341 38.8764 54.3693 39.0076 55.4916 39.011C56.6276 39.0076 57.1456 38.8764 57.149 38.5794C57.1456 38.2652 56.6276 38.1512 55.4916 38.1478C54.3693 38.1512 53.8341 38.2652 53.8376 38.5794Z" fill="#0E0E0E"/>
<path d="M149.5 12.5C150.605 12.5 151.5 13.3954 151.5 14.5V26.5C151.5 27.6046 150.605 28.5 149.5 28.5H137.5L137.296 28.4893C136.287 28.387 135.5 27.5357 135.5 26.5V14.5C135.5 13.4643 136.287 12.613 137.296 12.5107L137.5 12.5H149.5ZM137.5 13.5C136.948 13.5 136.5 13.9477 136.5 14.5V26.5C136.5 27.0523 136.948 27.5 137.5 27.5H149.5C150.052 27.5 150.5 27.0523 150.5 26.5V14.5C150.5 13.9477 150.052 13.5 149.5 13.5H137.5ZM148 23.5C148.276 23.5 148.5 23.7239 148.5 24C148.5 24.2761 148.276 24.5 148 24.5H139C138.724 24.5 138.5 24.2761 138.5 24C138.5 23.7239 138.724 23.5 139 23.5H148ZM148 19.5C148.276 19.5 148.5 19.7239 148.5 20C148.5 20.2761 148.276 20.5 148 20.5H139C138.724 20.5 138.5 20.2761 138.5 20C138.5 19.7239 138.724 19.5 139 19.5H148ZM148 15.5C148.276 15.5 148.5 15.7239 148.5 16C148.5 16.2761 148.276 16.5 148 16.5H139C138.724 16.5 138.5 16.2761 138.5 16C138.5 15.7239 138.724 15.5 139 15.5H148Z" fill="#0E0E0E"/>
<path d="M130.873 36.4688C130.863 39.0469 130.072 41.3418 126.879 42.9141L126.371 42.2207C127.953 41.4443 128.896 40.502 129.418 39.3887L126.557 39.6621L126.42 38.8613L129.701 38.6367C129.833 38.1924 129.911 37.7188 129.945 37.2207H126.879V36.4688H130.873ZM133.139 35.5801V39.0762H134.496V39.8379H133.139V44.3203H132.211V35.5801H133.139ZM138.549 36.6152V37.3574H136.166V38.9688H138.158V39.6914H136.166V41.5273C137.309 41.5176 138.056 41.4639 138.959 41.3027L139.037 42.0547C138.031 42.2598 137.201 42.2793 135.844 42.2793H135.277V36.6152H138.549ZM142.484 35.5801V44.3301H141.586V35.5801H142.484ZM140.678 35.7656V43.8906H139.799V39.6133H138.617V38.8613H139.799V35.7656H140.678ZM150.688 36.4199V37.2793C150.688 38.3633 150.688 39.5742 150.355 41.3613L149.418 41.2637C149.76 39.5742 149.76 38.334 149.76 37.2793V37.1719H144.447V36.4199H150.688ZM151.586 42.377V43.1484H143.607V42.377H146.645V39.291H147.562V42.377H151.586ZM159.516 35.5801V44.3496H158.588V35.5801H159.516ZM156.84 36.3711V39.5645H153.695V41.4785C155.111 41.4736 156.352 41.4102 157.816 41.166L157.904 41.9277C156.352 42.1914 155.033 42.25 153.49 42.25H152.748V38.8223H155.893V37.123H152.738V36.3711H156.84Z" fill="#999999"/>
<path d="M230 11.5C234.142 11.5 237.5 14.8579 237.5 19C237.5 20.7105 236.926 22.2861 235.962 23.5479L240.707 28.293L240.775 28.3691C241.096 28.7619 241.073 29.3409 240.707 29.707C240.341 30.0731 239.762 30.0957 239.369 29.7754L239.293 29.707L234.548 24.9619C233.286 25.9259 231.71 26.5 230 26.5C225.858 26.5 222.5 23.1421 222.5 19C222.5 14.8579 225.858 11.5 230 11.5ZM230 13.5C226.962 13.5 224.5 15.9624 224.5 19C224.5 22.0376 226.962 24.5 230 24.5C233.038 24.5 235.5 22.0376 235.5 19C235.5 15.9624 233.038 13.5 230 13.5Z" fill="#0E0E0E"/>
<path d="M227.344 36.127C227.344 38.3535 225.82 39.9355 223.281 40.6484L222.9 39.9258C224.917 39.3594 226.172 38.2656 226.357 36.8887H223.359V36.127H227.344ZM230.117 35.5898V40.541H229.189V38.5488H227.383V37.7773H229.189V35.5898H230.117ZM230.117 40.9023V44.2129H224.395V40.9023H230.117ZM225.303 41.6445V43.4707H229.199V41.6445H225.303ZM234.141 37.2305C234.141 38.2168 234.746 39.2031 235.879 39.6426L235.381 40.3555C234.58 40.0332 234.014 39.4277 233.701 38.6953C233.374 39.5107 232.778 40.2139 231.934 40.5801L231.426 39.8672C232.607 39.3496 233.242 38.2168 233.242 37.2305V36.1074H234.141V37.2305ZM238.926 35.5898V40.873H238.047V38.5879H237.021V40.8242H236.162V35.7363H237.021V37.8164H238.047V35.5898H238.926ZM238.926 41.332V44.3301H238.008V42.084H232.979V41.332H238.926Z" fill="#999999"/>
<path d="M317.114 21.4766C318.816 21.0871 320.585 21.0871 322.287 21.4766L322.977 21.6338C325.311 22.1676 327.256 23.7703 328.228 25.958L329.249 28.2568L329.287 28.3721C329.346 28.6446 329.209 28.9311 328.944 29.0488C328.679 29.1663 328.374 29.0759 328.212 28.8486L328.152 28.7432L327.131 26.4443C326.313 24.6022 324.674 23.2532 322.709 22.8037L322.02 22.6465C320.494 22.2973 318.908 22.2973 317.381 22.6465L316.692 22.8037C314.727 23.2532 313.088 24.6022 312.27 26.4443L311.249 28.7432C311.115 29.0458 310.76 29.183 310.457 29.0488C310.155 28.9144 310.018 28.5596 310.152 28.2568L311.173 25.958C312.145 23.7703 314.091 22.1676 316.424 21.6338L317.114 21.4766ZM319.201 11.5C321.686 11.5 323.701 13.5147 323.701 16C323.701 18.4853 321.686 20.5 319.201 20.5C316.715 20.5 314.701 18.4853 314.701 16C314.701 13.5147 316.715 11.5 319.201 11.5ZM319.201 12.7002C317.378 12.7002 315.901 14.1775 315.901 16C315.901 17.8225 317.378 19.2998 319.201 19.2998C321.023 19.2998 322.5 17.8225 322.5 16C322.5 14.1775 321.023 12.7002 319.201 12.7002Z" fill="black"/>
<path d="M315.246 36.4492V42.1328H311.154V36.4492H315.246ZM312.062 37.1816V41.3809H314.328V37.1816H312.062ZM317.639 35.5801V39.0078H319.045V39.7891H317.639V44.3301H316.711V35.5801H317.639ZM326.711 35.5801V44.3496H325.783V35.5801H326.711ZM322.033 36.2344C323.332 36.2344 324.289 37.4258 324.289 39.3008C324.289 41.1855 323.332 42.377 322.033 42.377C320.715 42.377 319.768 41.1855 319.768 39.3008C319.768 37.4258 320.715 36.2344 322.033 36.2344ZM322.033 37.0645C321.223 37.0645 320.666 37.9238 320.666 39.3008C320.666 40.6875 321.223 41.5469 322.033 41.5469C322.834 41.5469 323.391 40.6875 323.391 39.3008C323.391 37.9238 322.834 37.0645 322.033 37.0645Z" fill="#999999"/>
</svg>
