<svg width="40" height="13" viewBox="0 0 40 13" fill="none" xmlns="http://www.w3.org/2000/svg">
<rect width="40" height="13" rx="6" fill="#3549FF"/>
<path d="M8.25 2.94531C8.59375 2.94792 8.90104 3.01432 9.17188 3.14453C9.44531 3.27474 9.65885 3.45703 9.8125 3.69141C9.96875 3.92318 10.0469 4.1875 10.0469 4.48438C10.0469 4.78125 9.96875 5.04688 9.8125 5.28125C9.65885 5.51302 9.44531 5.69401 9.17188 5.82422C8.90104 5.95182 8.59375 6.01562 8.25 6.01562C7.90104 6.01562 7.58984 5.95182 7.31641 5.82422C7.04297 5.69401 6.82943 5.51302 6.67578 5.28125C6.52214 5.04688 6.44531 4.78125 6.44531 4.48438C6.44531 4.1875 6.52214 3.92318 6.67578 3.69141C6.82943 3.45703 7.04297 3.27474 7.31641 3.14453C7.58984 3.01432 7.90104 2.94792 8.25 2.94531ZM8.25 3.46094C8.02083 3.46094 7.8138 3.50521 7.62891 3.59375C7.44661 3.67969 7.30339 3.80078 7.19922 3.95703C7.09505 4.11068 7.04427 4.28646 7.04688 4.48438C7.04427 4.6849 7.09505 4.86328 7.19922 5.01953C7.30339 5.17578 7.44661 5.29818 7.62891 5.38672C7.8138 5.47266 8.02083 5.51562 8.25 5.51562C8.47656 5.51562 8.68099 5.47266 8.86328 5.38672C9.04818 5.29818 9.19271 5.17578 9.29688 5.01953C9.40104 4.86328 9.45312 4.6849 9.45312 4.48438C9.45312 4.28646 9.40104 4.11068 9.29688 3.95703C9.19271 3.80078 9.04818 3.67969 8.86328 3.59375C8.68099 3.50521 8.47656 3.46094 8.25 3.46094ZM12.0156 6.25781H11.4062V2.6875H12.0156V6.25781ZM12.0156 8.26562H8.11719V9.04688H12.2656V9.53906H7.51562V7.80469H11.4062V7.08594H7.5V6.59375H12.0156V8.26562ZM15.6641 4.55469C15.6615 4.96615 15.7448 5.375 15.9141 5.78125C16.0833 6.1849 16.3125 6.54427 16.6016 6.85938C16.8906 7.17448 17.2057 7.40885 17.5469 7.5625L17.1719 8.04688C16.776 7.85156 16.4167 7.5612 16.0938 7.17578C15.7734 6.78776 15.5312 6.34766 15.3672 5.85547C15.2057 6.37891 14.9635 6.84766 14.6406 7.26172C14.3177 7.67318 13.9531 7.98177 13.5469 8.1875L13.1562 7.67188C13.4974 7.51302 13.8125 7.27214 14.1016 6.94922C14.3906 6.6237 14.6211 6.2513 14.793 5.83203C14.9648 5.41016 15.0521 4.98438 15.0547 4.55469V3.28906H15.6641V4.55469ZM18.9219 9.64844H18.3047V2.6875H18.9219V9.64844ZM25.8672 7.83594H25.25V5.96875H23.6094V6.64844H20.4609V3.15625H21.0703V4.39062H23.0078V3.15625H23.6094V3.96875H25.25V2.69531H25.8672V7.83594ZM26.0234 9.48438H21.375V7.32812H21.9922V8.96875H26.0234V9.48438ZM23.0078 6.14062V4.875H21.0703V6.14062H23.0078ZM25.25 5.46094V4.48438H23.6094V5.46094H25.25ZM32.7812 6.86719H32.1641V5.92969H30.3203V5.42188H32.1641V4.48438H30.3867C30.1628 5.03646 29.793 5.51302 29.2773 5.91406C28.7617 6.3151 28.1276 6.6276 27.375 6.85156L27.1172 6.36719C27.6771 6.20052 28.1628 5.98828 28.5742 5.73047C28.9857 5.47005 29.3099 5.17057 29.5469 4.83203C29.7839 4.49349 29.9232 4.125 29.9648 3.72656H27.4688V3.21094H30.6328C30.6328 3.47917 30.6029 3.73958 30.543 3.99219H32.1641V2.69531H32.7812V6.86719ZM30.5078 6.9375C30.974 6.9375 31.3815 6.99089 31.7305 7.09766C32.0794 7.20443 32.3477 7.35807 32.5352 7.55859C32.7253 7.75651 32.8203 7.99219 32.8203 8.26562C32.8203 8.54167 32.7253 8.77995 32.5352 8.98047C32.3477 9.18099 32.0794 9.33464 31.7305 9.44141C31.3815 9.54818 30.974 9.60156 30.5078 9.60156C30.0365 9.60156 29.6263 9.54818 29.2773 9.44141C28.9284 9.33464 28.6589 9.18099 28.4688 8.98047C28.2812 8.77995 28.1875 8.54167 28.1875 8.26562C28.1875 7.99219 28.2812 7.75651 28.4688 7.55859C28.6589 7.35807 28.9284 7.20443 29.2773 7.09766C29.6263 6.99089 30.0365 6.9375 30.5078 6.9375ZM30.5078 7.42969C30.1615 7.42708 29.8581 7.45964 29.5977 7.52734C29.3398 7.59245 29.1406 7.6888 29 7.81641C28.8594 7.94401 28.7891 8.09375 28.7891 8.26562C28.7891 8.4375 28.8594 8.58724 29 8.71484C29.1406 8.83984 29.3398 8.9349 29.5977 9C29.8555 9.06771 30.1589 9.10156 30.5078 9.10156C30.8516 9.10156 31.151 9.06771 31.4062 9C31.6615 8.9349 31.8581 8.83984 31.9961 8.71484C32.1367 8.58724 32.2083 8.4375 32.2109 8.26562C32.2083 8.09375 32.1367 7.94401 31.9961 7.81641C31.8555 7.6888 31.6576 7.59245 31.4023 7.52734C31.1471 7.45964 30.849 7.42708 30.5078 7.42969Z" fill="#F8F8F8"/>
</svg>
