<svg width="36" height="36" viewBox="0 0 36 36" fill="none" xmlns="http://www.w3.org/2000/svg">
<rect width="36" height="36" rx="18" fill="#4154FF"/>
<path d="M18.5654 8.30164C24.3776 8.59604 29 13.4017 29 19.287L28.9854 19.8524C28.6909 25.6645 23.8852 30.2869 18 30.287L17.4336 30.2723C11.8091 29.9871 7.29962 25.477 7.01465 19.8524L7 19.287C7 13.212 11.925 8.28699 18 8.28699L18.5654 8.30164ZM18 11.037C13.4437 11.037 9.75 14.7307 9.75 19.287C9.75018 23.8431 13.4438 27.537 18 27.537C22.5561 27.5369 26.2498 23.8431 26.25 19.287C26.25 14.7308 22.5562 11.0371 18 11.037ZM18 14.6464C18.4746 14.6464 18.8594 15.0311 18.8594 15.5057V19.4471L21.873 22.4608L21.9326 22.5253C22.2077 22.8628 22.1876 23.3611 21.873 23.6757C21.5586 23.9898 21.061 24.0098 20.7236 23.7352L20.6582 23.6757L17.3926 20.41C17.2316 20.249 17.1408 20.0303 17.1406 19.8026V15.5057C17.1406 15.0311 17.5254 14.6464 18 14.6464ZM10.877 6.19813C11.432 5.83301 12.1778 5.98683 12.543 6.54188C12.9081 7.09693 12.7542 7.84266 12.1992 8.20789L9.32715 10.0975C8.7721 10.4625 8.02628 10.3088 7.66113 9.75379C7.29599 9.1988 7.45005 8.45306 8.00488 8.08777L10.877 6.19813ZM23.8174 6.54188C24.1826 5.98684 24.9283 5.83304 25.4834 6.19813L28.3555 8.08777C28.9103 8.45305 29.0644 9.19879 28.6992 9.75379C28.3341 10.3087 27.5882 10.4625 27.0332 10.0975L24.1611 8.20789C23.6062 7.84266 23.4522 7.09692 23.8174 6.54188Z" fill="#F8F8F8"/>
</svg>
