<svg width="18" height="18" viewBox="0 0 18 18" fill="none" xmlns="http://www.w3.org/2000/svg">
<rect width="18" height="18" rx="9" fill="#4154FF"/>
<path d="M9.2832 4.14999C12.1889 4.29741 14.4998 6.70084 14.5 9.64316L14.4922 9.92636C14.3447 12.8322 11.9425 15.1431 9 15.1432L8.7168 15.1353C5.9047 14.9927 3.64951 12.7384 3.50684 9.92636L3.5 9.64316C3.50024 6.60584 5.96263 4.14316 9 4.14316L9.2832 4.14999ZM9 5.51816C6.72201 5.51816 4.87524 7.36522 4.875 9.64316C4.87505 11.9213 6.72189 13.7682 9 13.7682C11.2781 13.7681 13.125 11.9212 13.125 9.64316C13.1248 7.36525 11.278 5.5182 9 5.51816ZM9 7.32284C9.23716 7.32284 9.42945 7.51543 9.42969 7.75253V9.72324L10.9365 11.2301L10.9912 11.2975C11.1012 11.4641 11.0831 11.6907 10.9365 11.8375C10.7897 11.9842 10.5632 12.0023 10.3965 11.8922L10.3291 11.8375L8.69629 10.2047C8.61591 10.1242 8.57039 10.0147 8.57031 9.90097V7.75253C8.57055 7.51543 8.76284 7.32284 9 7.32284ZM5.43848 3.09921C5.71602 2.91661 6.08888 2.99354 6.27148 3.27109C6.454 3.54862 6.37712 3.92151 6.09961 4.10409L4.66406 5.04843C4.38652 5.23104 4.01366 5.1541 3.83105 4.87656C3.64846 4.59901 3.72539 4.22615 4.00293 4.04355L5.43848 3.09921ZM11.9082 3.27109C12.0908 2.99354 12.4646 2.91661 12.7422 3.09921L14.1777 4.04355C14.4552 4.22611 14.532 4.59904 14.3496 4.87656C14.167 5.15409 13.7941 5.23101 13.5166 5.04843L12.0801 4.10409C11.8029 3.92149 11.7259 3.5485 11.9082 3.27109Z" fill="#F8F8F8"/>
</svg>
