<svg width="24" height="24" viewBox="0 0 24 24" fill="none" xmlns="http://www.w3.org/2000/svg">
<path d="M14.2334 3.07623C14.4301 2.95267 14.6933 2.98015 14.8604 3.15435C15.0273 3.32878 15.0433 3.59301 14.9111 3.78424L14.8447 3.86138L6.74414 11.6251H18.249L18.3496 11.6348C18.5775 11.6814 18.7489 11.8835 18.749 12.1251C18.749 12.3667 18.5775 12.5687 18.3496 12.6153L18.249 12.6251H6.74414L14.8447 20.3897C15.044 20.5806 15.051 20.8964 14.8604 21.0958C14.6693 21.2951 14.3527 21.3023 14.1533 21.1114L5.1543 12.4864C5.05595 12.3921 5 12.2613 5 12.1251C5.00007 11.9889 5.05597 11.858 5.1543 11.7637L14.1533 3.13873L14.2334 3.07623Z" fill="white"/>
</svg>
