<svg width="24" height="24" viewBox="0 0 24 24" fill="none" xmlns="http://www.w3.org/2000/svg">
<g id="ic_close_white_24">
<path id="Union" d="M20.1493 3.14641C20.3446 2.95122 20.6611 2.95118 20.8563 3.14641C21.0515 3.34166 21.0515 3.6582 20.8563 3.85344L12.7079 12.0009L20.8563 20.1493C21.0511 20.3446 21.0514 20.6613 20.8563 20.8564C20.6612 21.0513 20.3445 21.0511 20.1493 20.8564L12.0009 12.7079L3.85339 20.8564C3.65814 21.0511 3.34146 21.0513 3.14636 20.8564C2.95128 20.6613 2.95162 20.3446 3.14636 20.1493L11.2938 12.0009L3.14636 3.85344C2.9512 3.65821 2.95122 3.34166 3.14636 3.14641C3.3416 2.95117 3.65812 2.95122 3.85339 3.14641L12.0009 11.2939L20.1493 3.14641Z" fill="white"/>
</g>
</svg>
