<svg width="19" height="19" viewBox="0 0 19 19" fill="none" xmlns="http://www.w3.org/2000/svg">
<g id="Frame 1707484488">
<path id="Union" d="M7.5 0C11.6421 0 15 3.35786 15 7.5C15 9.21048 14.4259 10.7861 13.4619 12.0479L18.207 16.793L18.2754 16.8691C18.5957 17.2619 18.5731 17.8409 18.207 18.207C17.8409 18.5731 17.2619 18.5957 16.8691 18.2754L16.793 18.207L12.0479 13.4619C10.7861 14.4259 9.21048 15 7.5 15C3.35786 15 0 11.6421 0 7.5C0 3.35786 3.35786 0 7.5 0ZM7.5 2C4.46243 2 2 4.46243 2 7.5C2 10.5376 4.46243 13 7.5 13C10.5376 13 13 10.5376 13 7.5C13 4.46243 10.5376 2 7.5 2Z" fill="#0E0E0E"/>
</g>
</svg>
