<svg width="18" height="18" viewBox="0 0 18 18" fill="none" xmlns="http://www.w3.org/2000/svg">
<g id="ic_select">
<path id="Union" d="M9 0C13.9706 0 18 4.02944 18 9C18 13.9706 13.9706 18 9 18C4.02944 18 0 13.9706 0 9C0 4.02944 4.02944 0 9 0ZM9 1C4.58172 1 1 4.58172 1 9C1 13.4183 4.58172 17 9 17C13.4183 17 17 13.4183 17 9C17 4.58172 13.4183 1 9 1ZM9 4.23535C11.6315 4.23535 13.7646 6.36853 13.7646 9C13.7646 11.6315 11.6315 13.7646 9 13.7646C6.36853 13.7646 4.23535 11.6315 4.23535 9C4.23535 6.36853 6.36853 4.23535 9 4.23535Z" fill="#DF2B3B"/>
</g>
</svg>
