<svg width="56" height="56" viewBox="0 0 56 56" fill="none" xmlns="http://www.w3.org/2000/svg">
<rect width="56" height="56" rx="27.5" fill="#4154FF"/>
<path d="M27.9336 13.1665C37.0142 13.3967 44.3045 20.8303 44.3047 29.9663L44.2998 30.3999C44.0696 39.4805 36.636 46.7707 27.5 46.771L27.0654 46.7661C18.129 46.5394 10.9267 39.3363 10.7002 30.3999L10.6943 29.9663C10.6946 20.6852 18.2188 13.1606 27.5 13.1606L27.9336 13.1665ZM27.5 17.3618C20.5392 17.3618 14.8957 23.0055 14.8955 29.9663C14.8957 36.9271 20.5391 42.5698 27.5 42.5698C34.4606 42.5695 40.1033 36.9269 40.1035 29.9663C40.1033 23.0057 34.4606 17.362 27.5 17.3618ZM27.5 22.8764C28.2249 22.8765 28.8123 23.4641 28.8125 24.1889V30.2085L33.417 34.8139L33.5078 34.9135C33.9282 35.4291 33.8974 36.1907 33.417 36.6714C32.9363 37.1514 32.1756 37.1815 31.6602 36.7612L31.5605 36.6714L26.5713 31.6821C26.3253 31.436 26.1876 31.1014 26.1875 30.7534V24.1889C26.1877 23.464 26.775 22.8764 27.5 22.8764ZM16.6172 9.96921C17.4652 9.41125 18.6051 9.64655 19.1631 10.4946C19.721 11.3426 19.4857 12.4826 18.6377 13.0405L14.251 15.9262C13.403 16.4841 12.2631 16.2496 11.7051 15.4018C11.1471 14.5538 11.3824 13.4139 12.2305 12.8559L16.6172 9.96921ZM36.3877 10.4946C36.9456 9.64666 38.0846 9.41147 38.9326 9.96921L43.3203 12.8559C44.1682 13.4139 44.4036 14.5538 43.8457 15.4018C43.2877 16.2497 42.1478 16.4842 41.2998 15.9262L36.9121 13.0405C36.0641 12.4825 35.8298 11.3426 36.3877 10.4946Z" fill="#F8F8F8"/>
</svg>
