<svg width="25" height="25" viewBox="0 0 25 25" fill="none" xmlns="http://www.w3.org/2000/svg">
<path d="M21.5 20.5811C21.5 21.1334 21.0523 21.5811 20.5 21.5811H16.833C16.2807 21.5811 15.833 21.1334 15.833 20.5811V16.4141C15.8328 14.8495 14.5647 13.5811 13 13.5811C11.4353 13.5811 10.1672 14.8495 10.167 16.4141V20.5811C10.167 21.1334 9.71928 21.5811 9.16699 21.5811H5.5C4.94772 21.5811 4.5 21.1334 4.5 20.5811V11.018C4.5 10.7395 4.61618 10.4736 4.82055 10.2843L11.8593 3.76628C12.2263 3.42639 12.788 3.41001 13.1742 3.72792L21.1355 10.2811C21.3663 10.4711 21.5 10.7543 21.5 11.0532V20.5811Z" fill="#0E0E0E"/>
</svg>
