<svg width="25" height="25" viewBox="0 0 25 25" fill="none" xmlns="http://www.w3.org/2000/svg">
<path d="M18.5 4.5C19.6046 4.5 20.5 5.39543 20.5 6.5V18.5C20.5 19.6046 19.6046 20.5 18.5 20.5H6.5L6.2959 20.4893C5.28722 20.387 4.5 19.5357 4.5 18.5V6.5C4.5 5.46435 5.28722 4.613 6.2959 4.51074L6.5 4.5H18.5ZM6.5 5.5C5.94772 5.5 5.5 5.94772 5.5 6.5V18.5C5.5 19.0523 5.94772 19.5 6.5 19.5H18.5C19.0523 19.5 19.5 19.0523 19.5 18.5V6.5C19.5 5.94772 19.0523 5.5 18.5 5.5H6.5ZM17 15.5C17.2761 15.5 17.5 15.7239 17.5 16C17.5 16.2761 17.2761 16.5 17 16.5H8C7.72386 16.5 7.5 16.2761 7.5 16C7.5 15.7239 7.72386 15.5 8 15.5H17ZM17 11.5C17.2761 11.5 17.5 11.7239 17.5 12C17.5 12.2761 17.2761 12.5 17 12.5H8C7.72386 12.5 7.5 12.2761 7.5 12C7.5 11.7239 7.72386 11.5 8 11.5H17ZM17 7.5C17.2761 7.5 17.5 7.72386 17.5 8C17.5 8.27614 17.2761 8.5 17 8.5H8C7.72386 8.5 7.5 8.27614 7.5 8C7.5 7.72386 7.72386 7.5 8 7.5H17Z" fill="#0E0E0E"/>
</svg>
