<svg width="19" height="19" viewBox="0 0 19 19" fill="none" xmlns="http://www.w3.org/2000/svg">
<path d="M8 0.5C12.1421 0.5 15.5 3.85786 15.5 8C15.5 9.71048 14.9259 11.2861 13.9619 12.5479L18.707 17.293L18.7754 17.3691C19.0957 17.7619 19.0731 18.3409 18.707 18.707C18.3409 19.0731 17.7619 19.0957 17.3691 18.7754L17.293 18.707L12.5479 13.9619C11.2861 14.9259 9.71048 15.5 8 15.5C3.85786 15.5 0.5 12.1421 0.5 8C0.5 3.85786 3.85786 0.5 8 0.5ZM8 2.5C4.96243 2.5 2.5 4.96243 2.5 8C2.5 11.0376 4.96243 13.5 8 13.5C11.0376 13.5 13.5 11.0376 13.5 8C13.5 4.96243 11.0376 2.5 8 2.5Z" fill="#0E0E0E"/>
</svg>
