<svg width="25" height="25" viewBox="0 0 25 25" fill="none" xmlns="http://www.w3.org/2000/svg">
<path d="M10.1137 13.4766C11.8162 13.0871 13.585 13.0871 15.2875 13.4766L15.9769 13.6338C18.3105 14.1676 20.2562 15.7703 21.2279 17.958L22.2494 20.2568L22.2865 20.3721C22.3463 20.6446 22.2087 20.9311 21.9437 21.0488C21.6787 21.1663 21.3742 21.0759 21.2123 20.8486L21.1518 20.7432L20.1312 18.4443C19.3129 16.6022 17.6744 15.2532 15.7094 14.8037L15.0199 14.6465C13.4935 14.2973 11.9076 14.2973 10.3812 14.6465L9.69179 14.8037C7.72681 15.2532 6.08824 16.6022 5.26992 18.4443L4.24941 20.7432C4.11497 21.0458 3.76015 21.183 3.45742 21.0488C3.15475 20.9144 3.01762 20.5596 3.15175 20.2568L4.17324 17.958C5.14494 15.7703 7.09066 14.1676 9.42421 13.6338L10.1137 13.4766ZM12.2006 3.5C14.6859 3.5 16.7006 5.51472 16.7006 8C16.7006 10.4853 14.6859 12.5 12.2006 12.5C9.7153 12.5 7.70058 10.4853 7.70058 8C7.70058 5.51472 9.7153 3.5 12.2006 3.5ZM12.2006 4.7002C10.378 4.7002 8.90077 6.17746 8.90077 8C8.90077 9.82254 10.378 11.2998 12.2006 11.2998C14.0231 11.2998 15.5004 9.82254 15.5004 8C15.5004 6.17746 14.0231 4.7002 12.2006 4.7002Z" fill="black"/>
</svg>
